<svg width="207" height="128" viewBox="0 0 207 128" fill="none" xmlns="http://www.w3.org/2000/svg">
<path d="M108.757 0.0695899L117.211 13.6954L63.296 94.7952H47.1112L108.757 0.0695899Z" fill="#232E4C"/>
<path d="M108.036 27.218L116.901 13.6954L169.682 94.418H151.333H118.757L134.529 67.476L108.036 27.218Z" fill="#232E4C"/>
<path d="M106.902 37.2309L116.901 51.5793L88.9647 94.7276H70.7181L106.902 37.2309Z" fill="#232E4C"/>
<path d="M119.582 55.2954L128.55 68.9212L111.129 94.5212H92.1604L119.582 55.2954Z" fill="#232E4C"/>
<path d="M6.7655 114.341V100.077H15.8911V102.243H9.34599V106.115H15.2651V108.281H9.34599V114.341H6.7655ZM36.0631 107.209C36.0631 108.745 35.7757 110.062 35.2007 111.158C34.6304 112.249 33.8512 113.084 32.8637 113.665C31.8806 114.245 30.7654 114.536 29.5181 114.536C28.2707 114.536 27.1532 114.245 26.1654 113.665C25.1824 113.08 24.4035 112.242 23.8284 111.151C23.2582 110.055 22.9728 108.741 22.9728 107.209C22.9728 105.672 23.2582 104.358 23.8284 103.266C24.4035 102.171 25.1824 101.333 26.1654 100.752C27.1532 100.172 28.2707 99.8817 29.5181 99.8817C30.7654 99.8817 31.8806 100.172 32.8637 100.752C33.8512 101.333 34.6304 102.171 35.2007 103.266C35.7757 104.358 36.0631 105.672 36.0631 107.209ZM33.4688 107.209C33.4688 106.127 33.2995 105.214 32.961 104.471C32.6272 103.724 32.1635 103.16 31.5699 102.779C30.9763 102.394 30.2925 102.201 29.5181 102.201C28.7437 102.201 28.0598 102.394 27.4662 102.779C26.8726 103.16 26.4067 103.724 26.0681 104.471C25.7343 105.214 25.5673 106.127 25.5673 107.209C25.5673 108.29 25.7343 109.205 26.0681 109.953C26.4067 110.696 26.8726 111.26 27.4662 111.645C28.0598 112.026 28.7437 112.216 29.5181 112.216C30.2925 112.216 30.9763 112.026 31.5699 111.645C32.1635 111.26 32.6272 110.696 32.961 109.953C33.2995 109.205 33.4688 108.29 33.4688 107.209ZM43.5953 114.341V100.077H48.9371C50.0315 100.077 50.9496 100.267 51.6914 100.648C52.438 101.029 53.0014 101.562 53.3816 102.25C53.7665 102.932 53.9589 103.729 53.9589 104.639C53.9589 105.553 53.7643 106.347 53.3748 107.021C52.9899 107.689 52.4219 108.207 51.6706 108.574C50.9195 108.936 49.9966 109.117 48.9022 109.117H45.0977V106.972H48.5546C49.1944 106.972 49.7185 106.884 50.1265 106.707C50.5345 106.526 50.836 106.264 51.0308 105.92C51.2302 105.572 51.3298 105.145 51.3298 104.639C51.3298 104.133 51.2302 103.701 51.0308 103.343C50.8312 102.981 50.5275 102.707 50.1195 102.521C49.7115 102.331 49.1851 102.236 48.5406 102.236H46.1758V114.341H43.5953ZM50.9541 107.877L54.4807 114.341H51.6011L48.1371 107.877H50.9541ZM60.8008 102.243V100.077H72.166V102.243H67.7632V114.341H65.2037V102.243H60.8008ZM88.4291 100.077H91.0096V109.396C91.0096 110.417 90.7684 111.315 90.2862 112.091C89.8087 112.866 89.1363 113.472 88.2692 113.909C87.402 114.341 86.3888 114.556 85.2295 114.556C84.0657 114.556 83.0502 114.341 82.1831 113.909C81.3159 113.472 80.6436 112.866 80.1661 112.091C79.6883 111.315 79.4496 110.417 79.4496 109.396V100.077H82.0301V109.18C82.0301 109.774 82.16 110.303 82.4195 110.768C82.6839 111.232 83.0548 111.596 83.5325 111.861C84.01 112.121 84.5757 112.251 85.2295 112.251C85.8835 112.251 86.449 112.121 86.9267 111.861C87.409 111.596 87.7799 111.232 88.0397 110.768C88.2993 110.303 88.4291 109.774 88.4291 109.18V100.077ZM110.613 100.077V114.341H108.318L101.606 104.625H101.487V114.341H98.907V100.077H101.216L107.921 109.799H108.047V100.077H110.613ZM118.517 114.341V100.077H127.782V102.243H121.098V106.115H127.302V108.281H121.098V112.174H127.838V114.341H118.517ZM135.507 114.341V100.077H138.088V112.174H144.362V114.341H135.507ZM151.694 114.341V100.077H160.959V102.243H154.274V106.115H160.479V108.281H154.274V112.174H161.014V114.341H151.694ZM170.513 114.341H167.759L172.773 100.077H175.959L180.981 114.341H178.227L174.422 103.002H174.311L170.513 114.341ZM170.603 108.748H178.115V110.823H170.603V108.748ZM192.777 114.341H187.95V100.077H192.874C194.288 100.077 195.503 100.362 196.519 100.933C197.539 101.5 198.323 102.315 198.87 103.378C199.417 104.441 199.691 105.714 199.691 107.195C199.691 108.68 199.415 109.957 198.863 111.025C198.316 112.093 197.525 112.913 196.491 113.484C195.462 114.055 194.223 114.341 192.777 114.341ZM190.53 112.105H192.652C193.644 112.105 194.472 111.924 195.135 111.561C195.798 111.195 196.296 110.649 196.63 109.925C196.964 109.196 197.131 108.286 197.131 107.195C197.131 106.104 196.964 105.198 196.63 104.478C196.296 103.754 195.802 103.213 195.149 102.856C194.5 102.493 193.693 102.312 192.728 102.312H190.53V112.105Z" fill="#232E4C"/>
<path d="M39.6582 120.746V119.971H43.7258V120.746H42.15V125.076H41.234V120.746H39.6582ZM46.683 125.076V119.971H47.6067V122.132H49.969V119.971H50.895V125.076H49.969V122.907H47.6067V125.076H46.683ZM54.0725 125.076V119.971H57.3882V120.746H54.996V122.132H57.2165V122.907H54.996V124.301H57.4082V125.076H54.0725ZM67.8308 121.601C67.7894 121.467 67.7321 121.346 67.6591 121.24C67.5877 121.132 67.5016 121.039 67.4003 120.963C67.3007 120.887 67.1861 120.829 67.0566 120.791C66.9272 120.751 66.7861 120.731 66.6336 120.731C66.3598 120.731 66.1156 120.8 65.9016 120.938C65.6876 121.076 65.5192 121.279 65.3963 121.546C65.2751 121.812 65.2147 122.136 65.2147 122.519C65.2147 122.904 65.2751 123.231 65.3963 123.498C65.5175 123.766 65.686 123.969 65.9016 124.109C66.1173 124.247 66.368 124.316 66.6534 124.316C66.9123 124.316 67.1364 124.266 67.3255 124.166C67.5164 124.066 67.6632 123.925 67.7661 123.743C67.869 123.558 67.9205 123.342 67.9205 123.094L68.1296 123.127H66.7455V122.404H68.8141V123.017C68.8141 123.454 68.7213 123.832 68.5353 124.151C68.3496 124.47 68.0939 124.716 67.7686 124.889C67.4434 125.06 67.07 125.146 66.6484 125.146C66.1787 125.146 65.7664 125.04 65.4114 124.829C65.0578 124.616 64.7815 124.315 64.5823 123.924C64.3848 123.532 64.286 123.067 64.286 122.529C64.286 122.116 64.3442 121.748 64.4603 121.424C64.5782 121.1 64.7425 120.825 64.9532 120.599C65.1639 120.372 65.4114 120.199 65.695 120.081C65.9787 119.961 66.2876 119.901 66.621 119.901C66.9032 119.901 67.1663 119.943 67.4102 120.026C67.6541 120.107 67.8706 120.224 68.0599 120.375C68.2508 120.526 68.4075 120.706 68.5304 120.913C68.6533 121.121 68.7337 121.35 68.7718 121.601H67.8308ZM71.8803 125.076V119.971H73.7922C74.1837 119.971 74.5123 120.039 74.7779 120.175C75.0451 120.312 75.2467 120.503 75.3828 120.749C75.5205 120.993 75.5894 121.278 75.5894 121.604C75.5894 121.931 75.5197 122.215 75.3803 122.456C75.2426 122.695 75.0393 122.881 74.7705 123.012C74.5016 123.142 74.1713 123.207 73.7796 123.207H72.418V122.439H73.6553C73.8841 122.439 74.0717 122.407 74.2177 122.344C74.3639 122.279 74.4717 122.185 74.5414 122.062C74.6128 121.938 74.6484 121.785 74.6484 121.604C74.6484 121.423 74.6128 121.268 74.5414 121.14C74.4701 121.011 74.3614 120.913 74.2152 120.846C74.0693 120.778 73.8808 120.744 73.6501 120.744H72.8038V125.076H71.8803ZM74.514 122.763L75.7762 125.076H74.7455L73.5058 122.763H74.514ZM83.168 122.523C83.168 123.074 83.0651 123.545 82.8593 123.937C82.6552 124.327 82.3765 124.627 82.0229 124.834C81.6712 125.042 81.272 125.146 80.8256 125.146C80.3793 125.146 79.9793 125.042 79.6257 124.834C79.274 124.625 78.9952 124.325 78.7892 123.934C78.5851 123.542 78.4831 123.072 78.4831 122.523C78.4831 121.973 78.5851 121.503 78.7892 121.113C78.9952 120.721 79.274 120.421 79.6257 120.213C79.9793 120.005 80.3793 119.901 80.8256 119.901C81.272 119.901 81.6712 120.005 82.0229 120.213C82.3765 120.421 82.6552 120.721 82.8593 121.113C83.0651 121.503 83.168 121.973 83.168 122.523ZM82.2396 122.523C82.2396 122.136 82.179 121.81 82.0577 121.544C81.9384 121.276 81.7724 121.074 81.56 120.938C81.3475 120.8 81.1027 120.731 80.8256 120.731C80.5485 120.731 80.3036 120.8 80.0912 120.938C79.8789 121.074 79.7121 121.276 79.5909 121.544C79.4715 121.81 79.4117 122.136 79.4117 122.523C79.4117 122.911 79.4715 123.238 79.5909 123.506C79.7121 123.771 79.8789 123.973 80.0912 124.111C80.3036 124.248 80.5485 124.316 80.8256 124.316C81.1027 124.316 81.3475 124.248 81.56 124.111C81.7724 123.973 81.9384 123.771 82.0577 123.506C82.179 123.238 82.2396 122.911 82.2396 122.523ZM87.1571 125.076L85.7184 119.971H86.7115L87.63 123.723H87.6775L88.6582 119.971H89.5619L90.5452 123.725H90.5899L91.5084 119.971H92.5018L91.0629 125.076H90.1518L89.1312 121.494H89.0914L88.0682 125.076H87.1571ZM95.0911 120.746V119.971H99.1587V120.746H97.5829V125.076H96.6669V120.746H95.0911ZM102.116 125.076V119.971H103.04V122.132H105.402V119.971H106.328V125.076H105.402V122.907H103.04V125.076H102.116ZM117.781 121.694H116.85C116.824 121.541 116.775 121.405 116.703 121.287C116.632 121.167 116.543 121.066 116.437 120.983C116.331 120.9 116.209 120.838 116.073 120.796C115.939 120.753 115.794 120.731 115.638 120.731C115.361 120.731 115.115 120.801 114.901 120.941C114.687 121.079 114.519 121.281 114.398 121.549C114.277 121.815 114.216 122.14 114.216 122.523C114.216 122.914 114.277 123.243 114.398 123.511C114.521 123.777 114.688 123.978 114.901 124.114C115.115 124.249 115.36 124.316 115.635 124.316C115.788 124.316 115.931 124.296 116.063 124.256C116.198 124.215 116.318 124.154 116.424 124.074C116.532 123.994 116.623 123.896 116.696 123.78C116.77 123.663 116.822 123.531 116.85 123.381L117.781 123.386C117.746 123.629 117.671 123.856 117.555 124.069C117.44 124.282 117.29 124.469 117.104 124.632C116.918 124.794 116.701 124.92 116.452 125.011C116.203 125.101 115.927 125.146 115.623 125.146C115.175 125.146 114.775 125.042 114.423 124.834C114.071 124.627 113.794 124.327 113.592 123.934C113.389 123.542 113.288 123.072 113.288 122.523C113.288 121.973 113.39 121.503 113.594 121.113C113.798 120.721 114.076 120.421 114.428 120.213C114.78 120.005 115.178 119.901 115.623 119.901C115.907 119.901 116.17 119.941 116.415 120.021C116.658 120.101 116.876 120.218 117.067 120.372C117.258 120.525 117.414 120.713 117.537 120.936C117.662 121.157 117.743 121.409 117.781 121.694ZM121.393 125.076H120.407L122.202 119.971H123.342L125.14 125.076H124.154L122.792 121.018H122.752L121.393 125.076ZM121.425 123.074H124.114V123.817H121.425V123.074ZM127.144 120.746V119.971H131.212V120.746H129.636V125.076H128.72V120.746H127.144ZM134.207 125.076H133.222L135.016 119.971H136.156L137.954 125.076H136.968L135.606 121.018H135.566L134.207 125.076ZM134.24 123.074H136.928V123.817H134.24V123.074ZM140.798 125.076V119.971H141.722V124.301H143.967V125.076H140.798ZM146.08 119.971H147.123L148.37 122.229H148.42L149.667 119.971H150.71L148.856 123.172V125.076H147.934V123.172L146.08 119.971ZM156.308 121.374C156.285 121.157 156.187 120.987 156.014 120.866C155.843 120.745 155.621 120.684 155.347 120.684C155.155 120.684 154.989 120.713 154.852 120.771C154.714 120.829 154.609 120.908 154.536 121.008C154.463 121.108 154.425 121.222 154.423 121.35C154.423 121.456 154.448 121.548 154.496 121.626C154.545 121.704 154.613 121.771 154.697 121.826C154.782 121.879 154.876 121.924 154.979 121.96C155.082 121.997 155.185 122.028 155.29 122.052L155.768 122.172C155.96 122.217 156.145 122.278 156.323 122.354C156.502 122.431 156.662 122.527 156.803 122.643C156.946 122.759 157.059 122.9 157.142 123.064C157.225 123.229 157.266 123.422 157.266 123.643C157.266 123.942 157.19 124.205 157.037 124.433C156.885 124.659 156.664 124.836 156.375 124.964C156.088 125.09 155.74 125.153 155.332 125.153C154.936 125.153 154.591 125.092 154.299 124.969C154.009 124.846 153.781 124.666 153.617 124.43C153.454 124.194 153.366 123.907 153.353 123.568H154.262C154.275 123.746 154.33 123.894 154.426 124.012C154.522 124.13 154.648 124.218 154.802 124.276C154.958 124.334 155.132 124.363 155.325 124.363C155.525 124.363 155.701 124.333 155.852 124.273C156.005 124.212 156.125 124.127 156.211 124.019C156.297 123.909 156.341 123.782 156.343 123.635C156.341 123.502 156.302 123.393 156.226 123.306C156.15 123.218 156.042 123.145 155.905 123.087C155.769 123.027 155.609 122.974 155.427 122.927L154.847 122.778C154.427 122.67 154.095 122.506 153.851 122.287C153.609 122.066 153.488 121.772 153.488 121.407C153.488 121.106 153.569 120.843 153.731 120.617C153.896 120.391 154.119 120.215 154.401 120.091C154.683 119.964 155.003 119.901 155.359 119.901C155.721 119.901 156.038 119.964 156.31 120.091C156.584 120.215 156.799 120.389 156.955 120.612C157.111 120.833 157.192 121.087 157.197 121.374H156.308ZM160.039 120.746V119.971H164.106V120.746H162.53V125.076H161.614V120.746H160.039Z" fill="#232E4C"/>
<path d="M36.0807 123.218H0V125.076H36.0807V123.218Z" fill="#232E4C"/>
<path d="M203.495 123.218H167.827V125.076H203.495V123.218Z" fill="#232E4C"/>
</svg>
