<svg width="34" height="34" viewBox="0 0 34 34" fill="none" xmlns="http://www.w3.org/2000/svg">
<path d="M12.75 18.0625L15.9375 21.25L21.25 13.8125M29.75 17C29.75 18.7963 28.8575 20.3858 27.4933 21.3463C27.6402 22.1861 27.5827 23.0489 27.3255 23.8617C27.0683 24.6745 26.619 25.4133 26.0157 26.0157C25.4133 26.619 24.6745 27.0683 23.8617 27.3255C23.0489 27.5827 22.1861 27.6402 21.3463 27.4933C20.8565 28.1909 20.2057 28.7603 19.4491 29.1531C18.6926 29.546 17.8525 29.7507 17 29.75C15.2037 29.75 13.6142 28.8575 12.6537 27.4933C11.8139 27.6401 10.9511 27.5825 10.1384 27.3253C9.32558 27.0681 8.58673 26.6189 7.98434 26.0157C7.38101 25.4133 6.93172 24.6745 6.67452 23.8617C6.41731 23.0489 6.35977 22.1861 6.50675 21.3463C5.80908 20.8565 5.23971 20.2057 4.84688 19.4491C4.45405 18.6926 4.24931 17.8525 4.25 17C4.25 15.2037 5.1425 13.6142 6.50675 12.6537C6.35977 11.8139 6.41731 10.9511 6.67452 10.1383C6.93172 9.32551 7.38101 8.58666 7.98434 7.98434C8.58673 7.38111 9.32558 6.93189 10.1384 6.67469C10.9511 6.41749 11.8139 6.35988 12.6537 6.50675C13.1436 5.80916 13.7944 5.23986 14.5509 4.84704C15.3075 4.45422 16.1475 4.24943 17 4.25C18.7963 4.25 20.3858 5.1425 21.3463 6.50675C22.1861 6.35988 23.0489 6.41749 23.8616 6.67469C24.6744 6.93189 25.4133 7.38111 26.0157 7.98434C26.6189 8.58673 27.0681 9.32558 27.3253 10.1384C27.5825 10.9511 27.6401 11.8139 27.4933 12.6537C28.1909 13.1435 28.7603 13.7943 29.1531 14.5509C29.546 15.3074 29.7507 16.1475 29.75 17Z" stroke="white" stroke-width="1.5" stroke-linecap="round" stroke-linejoin="round"/>
</svg>
